ply
format ascii 1.0
element vertex 46
property float32 x
property float32 y
property float32 z
element face 92
property list uint8 int32 vertex_indices
end_header

 0.0 0.0 0.0
 0.5 0.0 0.0

-0.4 1.0 0.0
 0.0 1.0 0.0
 0.5 1.0 0.0
 0.9 1.0 0.0

-1.0 2.0 0.0
-0.5 2.0 0.0 
 0.0 2.0 0.0 
 0.5 2.0 0.0
 1.0 2.0 0.0
 1.5 2.0 0.0

-1.0 3.0 0.0
-0.5 3.0 0.0
 0.0 3.0 0.0
 0.5 3.0 0.0
 1.0 3.0 0.0
 1.5 3.0 0.0

-0.5 4.0 0.0
 0.0 4.0 0.0
 0.5 4.0 0.0
 1.0 4.0 0.0

-1.5 4.5 0.5
 2.0 4.5 0.5

 0.0 0.0 1.0
 0.5 0.0 1.0

-0.5 1.0 1.0
 0.0 1.0 1.0
 0.5 1.0 1.0
 1.0 1.0 1.0

-1.0 2.0 1.0
-0.5 2.0 1.0 
 0.0 2.0 1.0 
 0.5 2.0 1.0
 1.0 2.0 1.0
 1.5 2.0 1.0

-1.0 3.0 1.0
-0.5 3.0 1.0
 0.0 3.0 1.0
 0.5 3.0 1.0
 1.0 3.0 1.0
 1.5 3.0 1.0

-0.5 4.0 1.0
 0.0 4.0 1.0
 0.5 4.0 1.0
 1.0 4.0 1.0

3 0 3 2
3 0 4 3
3 0 1 4
3 1 5 4

3 2 7 6
3 2 8 7
3 2 3 8
3 3 9 8
3 3 4 9
3 4 10 9
3 4 5 10
3 5 11 10

3 6 13 12
3 6 7 13
3 7 14 13
3 7 8 14
3 8 15 14
3 8 9 15
3 9 16 15
3 9 10 16
3 10 17 16
3 10 11 17

3 12 13 18
3 13 19 18
3 13 14 19
3 14 20 19
3 14 15 20
3 15 21 20
3 15 16 21
3 16 17 21


3 24 27 26
3 24 28 27
3 24 25 28
3 25 29 28

3 26 31 30
3 26 32 31
3 26 27 32
3 27 33 32
3 27 28 33
3 28 34 33
3 28 29 34
3 29 35 34

3 30 37 36
3 30 31 37
3 31 38 37
3 31 32 38
3 32 39 38
3 32 33 39
3 33 40 39
3 33 34 40
3 34 41 40
3 34 35 41

3 36 37 42
3 37 43 42
3 37 38 43
3 38 44 43
3 38 39 44
3 39 45 44
3 39 40 45
3 40 41 45

3 0 1 24
3 1 25 24
3 1 5 25
3 5 29 25
3 5 11 29
3 11 35 29
3 11 17 35
3 17 41 35
3 17 21 41
3 21 45 41
3 21 20 45
3 20 44 45
3 20 19 44
3 19 43 44
3 19 18 43
3 18 42 43
3 18 12 42
3 12 36 42
3 12 6 36
3 6 30 36
3 6 2 30
3 2 26 30
3 2 0 26
3 0 24 26

3 12 18 22
3 18 42 22
3 42 36 22
3 36 12 22

3 21 17 23
3 17 41 23
3 41 45 23
3 45 21 23